<?xml version="1.0" encoding="utf-8"?>
<!-- Uploaded to: SVG Repo, www.svgrepo.com, Generator: SVG Repo Mixer Tools -->
<svg fill="#000000" height="800px" width="800px" version="1.1" id="Layer_1" xmlns="http://www.w3.org/2000/svg" xmlns:xlink="http://www.w3.org/1999/xlink" 
	 viewBox="0 0 64 64" enable-background="new 0 0 64 64" xml:space="preserve">
<path id="Money-bag" fill-rule="evenodd" clip-rule="evenodd" d="M29.5484734,10.1238632
	c6.655098,1.2049999,12.9640007-2.8378,11.0835991-7.1034002l-0.0020828-0.0046
	c-9.7198162,2.4186001-18.3757172-0.3155-17.3756161-0.0755C21.7864723,6.6562629,25.5932732,9.4075632,29.5484734,10.1238632z
	 M31.9438725,28.3790627c-1.4984989,0.0834007-3.3722992,0.3928013-4.2686005,1.5859013
	c-0.8371983,1.1141987-1.0366001,3.8684978-0.2367001,5.0463009c0.4278011,0.6300964,1.1266003,0.9950981,1.8557014,1.2257996
	c0.8547153,0.2703972,1.7551003,0.3710976,2.6495991,0.4157982V28.3790627z M33.9438744,38.6795616v9.4099007
	c6.8097992-0.5072975,5.9692993-7.8056984,2.1675987-9.0411987C35.412571,38.821064,34.6770744,38.7209625,33.9438744,38.6795616z
	 M31.9438725,26.3995628c0-1.7264996-0.2502003-2.924799,1.0000019-2.9897003c0.6118965,0.0312004,0.9709969,0.4320011,1,0.9885998
	v2.0075016c4.3838997,0.2779999,5.9368973,2.5481987,5.8318977,4.4498997
	c-0.1076012,1.2768002-2.0435982,1.2354984-1.9950981-0.1394005c0.055397-1.5720997-2.1873016-2.2094994-3.8367996-2.3285999
	v8.3129997c4.1201973,0.2145996,6.7641144,2.1106987,6.9852982,6.1395988
	c0.2439995,4.4339027-2.4210014,6.9545021-6.9852982,7.2308006c0,1.7581024,0.1593971,2.3049011-0.3308029,2.7415009
	c-0.5915985,0.5262985-1.6181984,0.2192993-1.669199-0.7346001v-1.9971008
	c-2.4328842-0.0970001-5.5872002-0.6490974-6.6520996-2.8418999c-1.3581009-2.7931976,1.5347004-3.3611984,1.6576996-1.4123993
	c0.1575165,1.7947998,3.1940002,2.1916008,4.9944,2.2748985v-9.4687996
	c-4.4559994-0.2165985-7.1646996-1.7520981-6.9883995-6.1559982c0.1627007-4.0860004,2.4892006-5.7815018,6.6963997-6.0607014
	C31.7491722,26.4097633,31.8465729,26.4041634,31.9438725,26.3995628z M31.3610725,13.0276632
	c-8.3750839,4.5542994-18.2804985,12.4161997-20.7972984,21.6517982c-1.5396996,5.649601-0.2027845,12.657402,4.1562147,18.0721016
	c20.6731853,25.6827011,66.2145844-13.5445023,17.5775852-39.7159996
	C31.9854736,13.0333633,31.6732731,13.0306635,31.3610725,13.0276632z M25.8783722,11.0357628
	c-6.9106998-3.2103996-5.4321995-10.0093994-2.6945-10.0831995c1-0.0071,7.6704998,2.3432999,16.4812012,0.2626
	c1-0.2366,1.8619995-0.3569,2.5648003,0.5966001c1.3365974,1.8139,1.3985977,6.6143999-4.2194023,9.2223005
	c1.0639,0.2381001,1.0362015,1.8263998-0.1604843,1.9483995c-2.2135162,0.0748005-2.1045151-0.4180002,1.3350868,1.9260998
	c42.0084,28.6341019-5.1214027,65.6988983-26.2083015,38.8501015c-4.5642996-5.8114014-6.0467-13.3460999-4.3442001-19.593399
	c2.1646004-7.9448013,9.1050005-14.5816002,15.8900995-19.2567024c3.4034996-2.3449993,3.5550995-1.9237995,1.5834007-1.9237995
	c-1.0575008-0.0362005-1.3479996-1.335-0.5195999-1.8332005C25.6786728,11.0961628,25.7762737,11.0591631,25.8783722,11.0357628z"/>
</svg>